<?xml version="1.0" encoding="UTF-8"?>
<svg xmlns="http://www.w3.org/2000/svg" xmlns:xlink="http://www.w3.org/1999/xlink" width="214px" height="131px" viewBox="0 0 214 131" version="1.1">
  <title>Asset-6mobile</title>
  <g id="Page-1" stroke="none" stroke-width="1" fill="none" fill-rule="evenodd">
    <g id="Asset-6mobile">
      <path d="M60.15,47.8 C60.0959715,49.9679918 60.3828,52.1310166 61,54.21 C61.6244917,55.9834767 62.3937501,57.7026019 63.3,59.35 C63.6015991,59.8424107 63.7736108,60.403169 63.8,60.98 C63.7248526,61.8784105 63.2125663,62.6823634 62.43,63.13 L57.96,66.13 C57.4168208,66.503501 56.7787289,66.7150423 56.12,66.74 C55.3008818,66.7213883 54.5275616,66.3583272 53.99,65.74 C52.9998038,64.7447417 52.1426749,63.6254322 51.44,62.41 C50.74,61.2 50.01,59.8 49.27,58.21 C43.71,64.8166667 36.75,68.1233333 28.39,68.13 C22.43,68.13 17.71,66.4133333 14.23,62.98 C10.75,59.5466667 9.00666667,54.95 9,49.19 C8.79877242,43.5468826 11.1760965,38.118782 15.46,34.44 C19.7666667,30.72 25.5633333,28.86 32.85,28.86 C35.3670829,28.8696539 37.8802196,29.0601443 40.37,29.43 C42.9633333,29.81 45.6666667,30.3333333 48.48,31 L48.48,25.73 C48.48,20.29 47.3633333,16.4633333 45.13,14.25 C42.8966667,12.0366667 39.0433333,10.9266667 33.57,10.92 C30.9949562,10.927481 28.4300577,11.2430575 25.93,11.86 C23.3266581,12.4838562 20.7730252,13.2994143 18.29,14.3 C17.4874747,14.673658 16.658576,14.9878373 15.81,15.24 C15.444802,15.3461384 15.0693622,15.4131812 14.69,15.44 C13.69,15.44 13.2,14.68 13.2,13.18 L13.2,9.66 C13.1313114,8.79429988 13.3007608,7.92630385 13.69,7.15 C14.2233463,6.4933209 14.9102511,5.97814235 15.69,5.65 C18.5474594,4.25289495 21.5439439,3.16021719 24.63,2.39 C28.2366587,1.44522801 31.9517172,0.977903913 35.68,1 C44.1333333,1 50.3233333,2.94666667 54.25,6.84 C58.1766667,10.7333333 60.1433333,16.61 60.15,24.47 L60.15,47.8 Z M31.33,58.72 C33.8331666,58.6924908 36.3140874,58.2463306 38.67,57.4 C41.2724517,56.4994254 43.5860243,54.9179086 45.37,52.82 C46.521497,51.5058749 47.3501711,49.9409821 47.79,48.25 C48.2990378,46.2066928 48.5377423,44.1054214 48.5,42 L48.5,39 C46.3559145,38.4886064 44.1861955,38.0913809 42,37.81 C39.797952,37.5267564 37.5801875,37.3831361 35.36,37.38 C30.62,37.38 27.11,38.33 24.8,40.25 C22.49,42.17 21.33,44.93 21.32,48.56 C21.32,51.9 22.18,54.43 23.92,56.15 C25.66,57.87 28.12,58.72 31.33,58.72 Z M88.33,66.5 C87.3635315,66.5700797 86.4008137,66.3206163 85.59,65.79 C84.8464958,65.0187874 84.3397943,64.0505016 84.13,63 L67.49,7.53 C67.1705273,6.6006885 66.9591348,5.63767835 66.86,4.66 C66.7999411,4.25283382 66.9042844,3.83849839 67.1500253,3.50834269 C67.3957662,3.17818699 67.7627257,2.9593216 68.17,2.9 C68.3122396,2.8749582 68.4577604,2.8749582 68.6,2.9 L75.6,2.9 C76.5845865,2.81847431 77.5678172,3.07221127 78.39,3.62 C79.1103123,4.41383021 79.6011631,5.38861838 79.81,6.44 L91.7,53.87 L102.77,6.39 C102.901252,5.32904544 103.379364,4.34118183 104.13,3.58 C104.983335,3.0352582 105.99058,2.78256938 107,2.86 L112.71,2.86 C113.709902,2.78330945 114.707406,3.03619789 115.55,3.58 C116.288448,4.35093572 116.767449,5.33341322 116.92,6.39 L128.1,54.44 L140.4,6.44 C140.609105,5.39166941 141.100038,4.42017514 141.82,3.63 C142.638139,3.07321822 143.624601,2.81864735 144.61,2.91 L151.23,2.91 C151.635974,2.85310904 152.047877,2.96043066 152.374474,3.20819358 C152.70107,3.45595651 152.915404,3.82371063 152.97,4.23 C152.99001,4.37598414 152.99001,4.52401586 152.97,4.67 C152.961898,5.04988954 152.918376,5.42819506 152.84,5.8 C152.708485,6.39280866 152.541518,6.97719206 152.34,7.55 L135.19,63 C134.974653,64.0665779 134.457481,65.0488569 133.7,65.83 C132.889186,66.3606163 131.926469,66.6100797 130.96,66.54 L124.88,66.54 C123.879614,66.6402241 122.875529,66.389203 122.04,65.83 C121.315358,65.0428791 120.841856,64.0575765 120.68,63 L109.6,16.69 L98.67,62.86 C98.507606,63.9292384 98.0346957,64.9272182 97.31,65.73 C96.4733815,66.287388 95.4711208,66.5414823 94.47,66.45 L88.33,66.5 Z M179.51,68.4 C175.830449,68.4098853 172.162311,67.990382 168.58,67.15 C165.727126,66.5770364 162.967503,65.6111683 160.38,64.28 C158.749097,63.6343413 157.700245,62.0330399 157.76,60.28 L157.76,56.59 C157.76,55.09 158.3,54.34 159.38,54.34 C159.825576,54.3368288 160.267382,54.4217915 160.68,54.59 C161.14,54.75 161.74,55 162.49,55.3 C164.987243,56.4275722 167.603817,57.2695723 170.29,57.81 C173.068666,58.3958262 175.900256,58.6940647 178.74,58.7 C183.213333,58.7 186.67,57.9033333 189.11,56.31 C191.465931,54.881471 192.868719,52.2937677 192.78,49.54 C192.82545,47.683293 192.131167,45.884633 190.85,44.54 C189.57,43.2 187.19,41.95 183.71,40.77 L173.4,37.51 C168.193333,35.83 164.406667,33.4033333 162.04,30.23 C159.735836,27.2492377 158.487119,23.5875066 158.49,19.82 C158.421741,17.0315632 159.083623,14.2737242 160.41,11.82 C161.687543,9.52449529 163.423497,7.51623439 165.51,5.92 C167.720403,4.23558337 170.227047,2.98056561 172.9,2.22 C175.824992,1.37815335 178.856384,0.963863183 181.9,0.99 C183.505284,0.991344275 185.108743,1.09824154 186.7,1.31 C188.31,1.52 189.84,1.79 191.3,2.12 C192.76,2.45 194.09,2.84 195.3,3.25 C196.333251,3.58189021 197.336783,4.0000283 198.3,4.5 C199.118551,4.94130298 199.842292,5.53932379 200.43,6.26 C200.873837,6.97516645 201.086811,7.80960541 201.04,8.65 L201.04,12 C201.04,13.51 200.5,14.26 199.43,14.26 C198.472704,14.1474029 197.545929,13.852057 196.7,13.39 C192.384433,11.5011516 187.709827,10.5730547 183,10.67 C178.94,10.67 175.8,11.33 173.56,12.67 C171.326615,14.0016887 170.03154,16.4758615 170.21,19.07 C170.171651,20.9879756 170.945222,22.8329221 172.34,24.15 C173.76,25.53 176.36,26.8633333 180.14,28.15 L190.2,31.41 C195.326667,33.09 198.993333,35.39 201.2,38.31 C203.372712,41.1881905 204.532913,44.7039532 204.5,48.31 C204.539685,51.1970945 203.902676,54.0533599 202.64,56.65 C201.407379,59.1143318 199.653508,61.2810792 197.5,63 C195.156582,64.830154 192.480529,66.1885565 189.62,67 C186.345852,67.9538678 182.95017,68.4254904 179.54,68.4 L179.51,68.4 Z" id="Shape" fill="#1B243D" fill-rule="nonzero"></path>
      <path d="M193,103.7 C169.63,121.12 135.74,130.39 106.57,130.39 C67.4998424,130.571171 29.7917375,116.045536 0.94,89.7 C-1.24,87.7 0.71,84.98 3.34,86.52 C33.41,104.19 70.58,114.84 109,114.84 C136.703519,114.697219 164.100666,109.033533 189.59,98.18 C193.52,96.48 196.83,100.81 193,103.7 Z" id="Path" fill="#F89628"></path>
      <path d="M202.69,92.48 C199.69,88.61 182.93,90.65 175.39,91.56 C173.11,91.84 172.76,89.82 174.81,88.36 C188.19,78.87 210.11,81.61 212.66,84.77 C215.21,87.93 211.99,110.18 199.45,120.77 C197.52,122.4 195.69,121.53 196.54,119.38 C199.36,112.28 205.68,96.37 202.69,92.48 Z" id="Path" fill="#F89628"></path>
    </g>
  </g>
</svg>
